# xmcd CD database file
#
# Track frame offsets:
#	150
#	21392
#	43882
#
# Disc length: 866 seconds
#
# Revision: 0
# Processed by: cddbd v1.5.1PL0 Copyright (c) Steve Scherf et al.
# Submitted via: CDex 1.51
#
DISCID=23036003
DTITLE=奥田美和子 - ぼくが生きていたこと
DYEAR=2005
DGENRE=JPop
TTITLE0=ぼくが生きていたこと
TTITLE1=1/2
TTITLE2=ぼくが生きていたこと (Instrumental)
EXTD=YEAR: 2005
EXTT0=
EXTT1=
EXTT2=
PLAYORDER=
